# xmcd CD database file
#
# Track frame offsets:
#	150
#	22612
#	42236
#	63040
#	81392
#	106513
#	123782
#	143338
#	167780
#	185599
#	207383
#
# Disc length: 3004 seconds
#
# Revision: 0
# Processed by: cddbd v1.5.1PL2 Copyright (c) Steve Scherf et al.
# Submitted via: CDex 1.51
#
DISCID=800bba0b
DTITLE=Steve Oliver - Radiant
DYEAR=2006
DGENRE=Jazz
TTITLE0=Feeling Good
TTITLE1=Tradewinds
TTITLE2=For What It's Worth
TTITLE3=Good To Go
TTITLE4=Shadow Of The Moon
TTITLE5=Cool
TTITLE6=Bend Or Break
TTITLE7=Across The Water
TTITLE8=Reach The Sky
TTITLE9=Shine
TTITLE10=Radiant Dreams
EXTD=YEAR: 2006
EXTT0=
EXTT1=
EXTT2=
EXTT3=
EXTT4=
EXTT5=
EXTT6=
EXTT7=
EXTT8=
EXTT9=
EXTT10=
PLAYORDER=
